<svg aria-hidden="true" style="position: absolute; width: 0; height: 0; overflow: hidden;" version="1.1" xmlns="http://www.w3.org/2000/svg" xmlns:xlink="http://www.w3.org/1999/xlink">
<defs>
<symbol id="icon-user-check-01" viewBox="0 0 32 32">
<path stroke-linejoin="round" stroke-linecap="round" stroke-miterlimit="4" stroke-width="2.6667" d="M21.333 24l2.667 2.667 5.333-5.333"></path>
<path stroke-linejoin="round" stroke-linecap="round" stroke-miterlimit="4" stroke-width="2.6667" d="M16 20.667h-6c-1.861 0-2.791 0-3.548 0.23-1.705 0.517-3.038 1.851-3.555 3.556-0.23 0.757-0.23 1.687-0.23 3.548v0"></path>
<path stroke-linejoin="round" stroke-linecap="round" stroke-miterlimit="4" stroke-width="2.6667" d="M13.333 16c3.314 0 6-2.686 6-6s-2.686-6-6-6c-3.314 0-6 2.686-6 6s2.686 6 6 6z"></path>
</symbol>
<symbol id="icon-Icon" viewBox="0 0 29 32">
<path fill="none" stroke="#3e85f3" style="stroke: var(--color1, #3e85f3)" stroke-linejoin="round" stroke-linecap="round" stroke-miterlimit="4" stroke-width="2.9091" d="M27.636 13.091h-26.182M27.636 16.727v-5.382c0-2.444 0-3.666-0.476-4.599-0.418-0.821-1.086-1.489-1.907-1.907-0.934-0.476-2.155-0.476-4.599-0.476h-12.218c-2.444 0-3.666 0-4.599 0.476-0.821 0.418-1.489 1.086-1.907 1.907-0.476 0.933-0.476 2.155-0.476 4.599v12.218c0 2.444 0 3.666 0.476 4.599 0.418 0.821 1.086 1.489 1.907 1.907 0.933 0.476 2.155 0.476 4.599 0.476h6.109M20.364 1.455v5.818M8.727 1.455v5.818M18.182 26.182l2.909 2.909 6.545-6.545"></path>
</symbol>
</defs>
</svg>
